<?xml version="1.0" standalone="no"?>
<!DOCTYPE svg PUBLIC "-//W3C//DTD SVG 20010904//EN"
 "http://www.w3.org/TR/2001/REC-SVG-20010904/DTD/svg10.dtd">
<svg version="1.0" xmlns="http://www.w3.org/2000/svg"
 width="649.000000pt" height="190.000000pt" viewBox="0 0 649.000000 190.000000"
 preserveAspectRatio="xMidYMid meet">

<g xmlns="http://www.w3.org/2000/svg" transform="translate(0.000000,190.000000) scale(0.100000,-0.100000)" fill="#000000" stroke="none">
<path d="M605 1814 c-225 -50 -433 -217 -529 -424 -72 -156 -69 -135 -73 -747 l-4 -553 316 0 c297 0 316 1 311 18 -18 58 -36 210 -36 303 0 132 27 267 77 388 50 122 36 169 -66 224 -71 39 -148 64 -286 93 -141 29 -172 40 -186 65 -9 18 -3 19 120 19 164 0 215 11 283 60 171 125 214 149 306 174 142 38 228 96 288 193 l23 38 0 -30 c0 -55 -27 -186 -47 -226 -20 -40 -20 -40 0 -22 11 10 38 47 61 82 37 57 42 62 45 40 4 -33 -23 -162 -42 -200 -14 -27 -13 -28 4 -19 10 5 32 27 49 47 37 44 39 34 9 -44 -40 -109 -107 -194 -204 -259 -99 -66 -98 -123 5 -244 80 -93 128 -161 173 -247 l44 -83 58 58 c106 106 190 259 217 395 17 89 12 253 -10 339 -67 258 -258 460 -516 544 -103 34 -283 42 -390 18z" style="fill: #ff5f00;"/>
<path d="M5390 1425 l0 -55 -80 0 -80 0 0 -60 0 -60 140 0 140 0 -26 -52 c-34 -67 -123 -160 -196 -205 l-58 -36 0 -78 0 -79 25 10 c14 5 44 19 67 30 23 11 43 20 45 20 2 0 3 -88 3 -195 l0 -195 95 0 95 0 1 198 c1 188 1 195 16 155 l15 -43 89 0 88 0 -49 141 c-28 77 -50 143 -50 145 0 2 -15 4 -34 4 l-34 0 33 63 c32 59 56 133 69 205 l6 32 -65 0 -65 0 0 55 0 55 -95 0 -95 0 0 -55z" style="fill: #ffffff;"/>
<path d="M2995 1440 c-14 -28 -20 -30 -70 -30 l-55 0 0 -295 0 -295 435 0 435 0 0 -115 0 -115 -85 0 c-47 0 -85 -2 -85 -5 0 -3 11 -28 25 -55 l25 -50 180 0 180 0 0 235 0 235 -432 2 -433 3 -3 168 -2 167 265 0 265 0 0 -85 0 -85 -36 0 c-40 0 -41 -7 -9 -83 l16 -38 137 3 137 3 0 200 0 200 -324 3 c-281 2 -322 4 -317 17 3 8 9 22 12 30 5 13 -12 15 -120 15 l-125 0 -16 -30z" style="&#10;    fill: #ffffff;&#10;"/>
<path d="M4050 1315 l0 -155 233 0 233 0 14 33 13 32 4 -32 4 -33 100 0 99 0 0 155 0 155 -350 0 -350 0 0 -155z m500 60 c0 -13 -23 -15 -150 -15 -127 0 -150 2 -150 15 0 13 23 15 150 15 127 0 150 -2 150 -15z m-5 -125 c0 -13 -24 -15 -147 -18 -144 -2 -148 -2 -148 18 0 20 4 20 148 18 123 -3 147 -5 147 -18z" style="&#10;    fill: #ffffff;&#10;"/>
<path d="M4925 1360 c-68 -95 -83 -110 -107 -110 -15 0 -28 -1 -28 -3 0 -2 7 -24 16 -50 l16 -47 91 0 92 1 108 159 108 160 -109 0 -109 0 -78 -110z" style="&#10;    fill: #ffffff;&#10;"/>
<path d="M5787 1463 c-4 -3 -7 -156 -7 -340 l0 -333 95 0 95 0 0 280 0 280 135 0 135 0 0 -280 0 -280 95 0 95 0 -2 338 -3 337 -316 3 c-173 1 -318 -1 -322 -5z" style="&#10;    fill: #ffffff;&#10;"/>
<path d="M2028 1252 l-3 -207 -33 -67 c-60 -122 -203 -231 -374 -288 l-68 -22 0 -99 0 -98 33 5 c147 26 293 81 396 152 24 16 74 59 110 95 l66 66 170 -159 170 -159 116 -1 116 0 16 60 c10 33 17 62 17 65 0 3 -15 5 -32 5 -28 0 -58 23 -205 155 l-172 155 -65 0 -64 0 21 58 c19 50 22 83 25 275 l4 217 -120 0 -120 0 -4 -208z" style="&#10;    fill: #ffffff;&#10;"/>
<path d="M1594 1393 c3 -16 17 -111 31 -213 14 -102 28 -195 30 -208 5 -22 7 -23 131 -20 l126 3 19 50 c10 28 19 51 19 52 0 1 -14 3 -32 5 l-31 3 -28 170 c-16 94 -29 173 -29 178 0 4 -54 7 -121 7 l-121 0 6 -27z" style="&#10;    fill: #ffffff;&#10;"/>
<path d="M2470 1414 c0 -9 -49 -306 -55 -331 -4 -18 -12 -23 -36 -23 -33 0 -33 -3 -3 -77 l14 -33 124 0 124 0 6 28 c3 15 17 110 31 212 14 102 28 195 30 208 5 22 5 22 -115 22 -66 0 -120 -3 -120 -6z" style="&#10;    fill: #ffffff;&#10;"/>
<path d="M6008 1043 c-3 -195 -5 -211 -27 -256 -27 -56 -69 -90 -148 -122 l-58 -24 -3 -80 c-3 -79 -2 -81 21 -81 13 0 48 7 78 16 110 33 193 88 251 168 l28 39 0 -111 0 -112 129 0 129 0 16 47 c9 26 16 50 16 55 0 4 -22 8 -50 8 l-50 0 0 85 0 85 -81 0 -81 0 7 33 c3 17 9 128 12 245 l5 212 -95 0 -96 0 -3 -207z" style="&#10;    fill: #ffffff;&#10;"/>
<path d="M3245 1199 c4 -22 15 -69 24 -102 l16 -62 106 -3 105 -3 12 34 c15 43 15 44 -6 49 -13 4 -24 25 -36 67 l-17 61 -105 0 -106 0 7 -41z" style="&#10;    fill: #ffffff;&#10;"/>
<path d="M4303 1130 c-5 -19 -14 -20 -149 -20 l-144 0 0 -45 0 -45 390 0 390 0 0 45 0 45 -144 0 c-135 0 -144 1 -149 20 -5 18 -14 20 -97 20 -83 0 -92 -2 -97 -20z" style="&#10;    fill: #ffffff;&#10;"/>
<path d="M4925 1030 c-68 -96 -82 -110 -107 -110 -33 0 -33 -1 -12 -57 l17 -43 91 0 91 1 108 159 108 160 -109 0 -109 0 -78 -110z" style="&#10;    fill: #ffffff;&#10;"/>
<path d="M4050 855 l0 -125 125 0 125 0 0 -85 c0 -78 -2 -85 -20 -85 -23 0 -24 -5 -9 -49 l11 -31 109 0 109 0 0 125 c0 104 2 125 15 125 9 0 15 9 15 24 0 14 5 28 10 31 6 4 10 -7 10 -25 l0 -31 98 3 97 3 3 123 3 122 -351 0 -350 0 0 -125z m500 0 l0 -35 -150 0 -150 0 0 35 0 35 150 0 150 0 0 -35z" style="&#10;    fill: #ffffff;&#10;"/>
<path d="M4922 685 c-69 -95 -88 -115 -109 -115 -20 0 -24 -4 -18 -17 4 -10 12 -30 17 -45 10 -28 11 -28 102 -28 l92 0 107 160 108 160 -108 0 -108 -1 -83 -114z" style="&#10;    fill: #ffffff;&#10;"/>
<path d="M2782 698 l3 -63 390 -2 390 -3 40 57 c22 31 42 61 43 65 2 4 -193 8 -433 8 l-436 0 3 -62z" style="&#10;    fill: #ffffff;&#10;"/>
<path d="M4076 692 c-3 -5 -8 -32 -12 -62 -4 -29 -14 -60 -23 -69 -11 -11 -14 -26 -11 -46 l5 -30 87 -3 c99 -3 90 -12 108 108 6 41 14 83 16 93 5 15 -3 17 -80 17 -47 0 -87 -4 -90 -8z" style="&#10;    fill: #ffffff;&#10;"/>
<path d="M4553 683 c3 -10 11 -52 17 -93 18 -120 9 -111 108 -108 l86 3 7 33 c5 23 3 32 -7 32 -11 0 -23 41 -36 125 -3 18 -12 20 -91 23 -81 3 -88 1 -84 -15z" style="&#10;    fill: #ffffff;&#10;"/>
</g>
</svg>
